<svg xmlns="http://www.w3.org/2000/svg" width="200" height="120" viewBox="0 0 200 120">
  <defs>
    <linearGradient id="grad1" x1="0%" y1="0%" x2="100%" y2="0%">
      <stop offset="0%" style="stop-color:#e53935;stop-opacity:1" />
      <stop offset="100%" style="stop-color:#c41c1c;stop-opacity:1" />
    </linearGradient>
    <linearGradient id="grad2" x1="0%" y1="0%" x2="100%" y2="0%">
      <stop offset="0%" style="stop-color:#43a047;stop-opacity:1" />
      <stop offset="100%" style="stop-color:#2e7d32;stop-opacity:1" />
    </linearGradient>
  </defs>
  
  <!-- Red E shape -->
  <path d="M 20 20 L 50 20 L 50 30 L 32 30 L 32 45 L 48 45 L 48 55 L 32 55 L 32 85 L 52 85 L 52 95 L 20 95 Z" fill="url(#grad1)"/>
  
  <!-- Green S shape -->
  <path d="M 80 30 Q 65 30 65 42 Q 65 50 75 55 Q 60 60 60 72 Q 60 85 75 85 Q 90 85 90 77 L 82 77 Q 82 80 77 80 Q 70 80 70 74 Q 70 68 80 63 Q 95 58 95 46 Q 95 33 80 30 Z" fill="url(#grad2)" transform="translate(30, 20)"/>
  
  <!-- Fire/ribbon decoration -->
  <path d="M 140 25 Q 145 30 148 35 Q 150 40 148 45 Q 145 50 140 48 Q 142 45 142 40 Q 142 35 140 32" stroke="url(#grad1)" stroke-width="8" fill="none" stroke-linecap="round"/>
  <path d="M 150 22 Q 158 32 160 45 Q 160 55 155 60 Q 148 65 145 55 Q 148 48 148 40 Q 148 32 145 25" stroke="url(#grad2)" stroke-width="8" fill="none" stroke-linecap="round"/>
</svg>
